<svg width="78" height="24" viewBox="0 0 78 24" fill="none" xmlns="http://www.w3.org/2000/svg">
<path d="M52.7395 7.65382C52.391 4.43466 50.3731 1.71627 47.4563 0.571677C44.5396 -0.572912 41.2193 0.035151 38.8712 2.09183C37.4587 0.857824 35.6243 0.124572 33.7165 0.0351509C31.4418 -0.0721544 29.2955 0.696866 27.6628 2.21702C26.1403 3.62988 25.2047 5.57925 25.0213 7.68959C24.9295 8.74476 25.0396 9.79993 25.3881 10.9266L11.153 10.8909C10.7677 10.8909 10.4559 11.0697 10.2724 11.3737C10.0706 11.7135 10.0706 12.1428 10.2724 12.4826C10.4559 12.7866 10.7677 12.9654 11.153 12.9654L26.8924 13.0012C27.2593 13.0012 27.5528 12.8402 27.7362 12.572C27.938 12.2679 27.9747 11.8387 27.8096 11.481C26.5805 8.70899 27.0391 5.77598 29.002 3.84448C30.2127 2.66413 31.8086 2.05606 33.478 2.10972C35.239 2.16337 36.9267 2.96816 38.1007 4.29159C38.2842 4.48832 38.5594 4.61351 38.8712 4.61351C39.1831 4.61351 39.4582 4.5062 39.6417 4.29159C41.4578 2.25279 44.1911 1.53742 46.6492 2.4674C48.8138 3.29007 50.3731 5.34676 50.6299 7.70747C50.7033 8.38707 51.327 8.72687 51.8957 8.67322C52.446 8.60168 52.7945 8.19035 52.7395 7.65382Z" fill="#2A2A2A"/>
<path d="M7.55743 20.9239H5.02592C4.71406 20.9239 4.47559 20.6735 4.47559 20.3874V3.3616C4.47559 3.05757 4.73241 2.82507 5.02592 2.82507H7.57577C7.88762 2.82507 8.1261 3.07545 8.1261 3.3616V20.3874C8.10776 20.6735 7.86928 20.9239 7.55743 20.9239Z" fill="#2A2A2A"/>
<path d="M3.11853 18.7957H0.550329C0.25682 18.7957 0 18.5632 0 18.2591V5.43615C0 5.15001 0.238476 4.89963 0.550329 4.89963H3.11853C3.41204 4.89963 3.66886 5.13212 3.66886 5.43615V18.2591C3.66886 18.5632 3.43039 18.7957 3.11853 18.7957Z" fill="#2A2A2A"/>
<path d="M11.9967 22.766H9.46516C9.1533 22.766 8.89648 22.5156 8.89648 22.2116V1.50165C8.89648 1.19762 9.1533 0.947235 9.46516 0.947235H11.9967C12.3085 0.947235 12.5653 1.19762 12.5653 1.50165V22.2294C12.5653 22.5335 12.3085 22.766 11.9967 22.766Z" fill="#2A2A2A"/>
<path d="M66.7184 11.3738C66.5349 11.0697 66.2231 10.8909 65.8378 10.8909L50.9239 10.9267C50.5937 10.9267 50.1534 11.1055 49.9883 11.4632C48.3007 15.1116 44.8886 17.8478 42.4488 19.6005C41.3665 20.3695 40.2842 21.0849 39.2019 21.7287L39.0918 21.7824C38.9267 21.8718 38.9267 21.8718 38.78 21.8181C38.3581 21.6572 37.9361 21.371 37.5326 21.1028C37.3675 20.9955 37.2024 20.8882 37.0556 20.7809C35.9549 20.0834 35.001 19.4217 34.1205 18.7599C32.3778 17.4186 30.9469 16.0773 29.7362 14.6108C29.3877 14.1816 28.8373 14.1279 28.3971 14.4677C27.9568 14.8075 27.755 15.4871 28.1953 16.0237C29.3693 17.4365 30.7635 18.7778 32.4695 20.1013C33.4601 20.8703 34.5057 21.6214 35.5881 22.3189C36.1384 22.6766 36.7254 23.0343 37.3308 23.392L37.4592 23.4635C37.8811 23.7139 38.3581 24 38.9267 24C39.0368 24 39.1652 23.9821 39.2936 23.9642C39.7522 23.8569 40.1925 23.5708 40.5961 23.3204C40.7061 23.2489 40.7978 23.1773 40.9079 23.1237C41.55 22.7302 42.192 22.301 42.8341 21.8718C44.6318 20.6378 46.1544 19.4217 47.5119 18.1519C49.3646 16.3992 50.7038 14.7002 51.6026 13.0012L65.8378 12.9655C66.2231 12.9655 66.5349 12.7866 66.7184 12.4826C66.9202 12.1428 66.9202 11.7136 66.7184 11.3738Z" fill="#FBF138"/>
<path d="M70.4419 20.9239H72.9918C73.3036 20.9239 73.5421 20.6735 73.5421 20.3874V3.36158C73.5421 3.05755 73.2853 2.82506 72.9918 2.82506H70.4419C70.1301 2.82506 69.8916 3.07544 69.8916 3.36158V20.3874C69.8916 20.6735 70.1301 20.9239 70.4419 20.9239Z" fill="#FBF138"/>
<path d="M74.8814 18.7957H77.4496C77.7431 18.7957 77.9999 18.5632 77.9999 18.2592V5.4362C77.9999 5.15005 77.7614 4.89967 77.4496 4.89967H74.8814C74.5879 4.89967 74.3311 5.13217 74.3311 5.4362V18.2592C74.3311 18.5632 74.5695 18.7957 74.8814 18.7957Z" fill="#FBF138"/>
<path d="M66.0032 22.766H68.5347C68.8466 22.766 69.1034 22.5156 69.1034 22.2116V1.50165C69.1034 1.19762 68.8466 0.947235 68.5347 0.947235H66.0032C65.6914 0.947235 65.4346 1.19762 65.4346 1.50165V22.2294C65.4346 22.5335 65.6914 22.766 66.0032 22.766Z" fill="#FBF138"/>
</svg>
